<?xml version="1.0" encoding="UTF-8" standalone="no"?>
<svg
   width="201.03mm"
   height="196.85mm"
   version="1.1"
   viewBox="0 0 201.03 196.85"
   id="svg188"
   sodipodi:docname="Logo.svg"
   inkscape:version="1.2.2 (b0a8486541, 2022-12-01)"
   xmlns:inkscape="http://www.inkscape.org/namespaces/inkscape"
   xmlns:sodipodi="http://sodipodi.sourceforge.net/DTD/sodipodi-0.dtd"
   xmlns="http://www.w3.org/2000/svg"
   xmlns:svg="http://www.w3.org/2000/svg"
   xmlns:rdf="http://www.w3.org/1999/02/22-rdf-syntax-ns#"
   xmlns:cc="http://creativecommons.org/ns#"
   xmlns:dc="http://purl.org/dc/elements/1.1/">
  <title
     id="title367">Logo</title>
  <defs
     id="defs192" />
  <sodipodi:namedview
     id="namedview190"
     pagecolor="#ffffff"
     bordercolor="#000000"
     borderopacity="0.25"
     inkscape:showpageshadow="2"
     inkscape:pageopacity="0.0"
     inkscape:pagecheckerboard="0"
     inkscape:deskcolor="#d1d1d1"
     inkscape:document-units="mm"
     showgrid="false"
     inkscape:zoom="0.31720429"
     inkscape:cx="-392.49154"
     inkscape:cy="372.00001"
     inkscape:window-width="2560"
     inkscape:window-height="1044"
     inkscape:window-x="0"
     inkscape:window-y="0"
     inkscape:window-maximized="1"
     inkscape:current-layer="svg188" />
  <g
     transform="translate(-35.19 -47.096)"
     id="g32">
    <path
       d="m228.17 120.18s21.804-5.8413-6.3892 1.712c-1.8075-7.4858-5.1852-14.784-9.1191-22.015l-9.1654 5.2917c-3.1308-5.8429-7.7596-11.33-12.824-16.713l-9.4948 9.4948c-8.5363-8.4676-18.597-14.256-30.156-17.411-10.104-2.1871-20.583-3.8274-34.822-3e-6 -11.616 3.1602-21.653 8.9894-30.156 17.411l-9.4948-9.4948c-5.3391 5.2441-9.355 10.895-12.824 16.713l-9.1654-5.2917c-4.3416 7.0448-6.7835 14.518-9.1191 22.015l-6.3892-1.712c5.2692-18.684 14.168-32.735 25.337-43.886 13.758-12.644 28.236-21.814 43.886-25.337 18.593-5.062 35.058-3.7946 50.675 7e-6 16.892 4.3715 31.311 13.195 43.886 25.337 11.516 12.714 21.302 26.506 25.337 43.886z"
       fill="#ff8b65"
       id="path2" />
    <path
       d="m39.054 170.86 6.3892-1.712c1.8075 7.4858 5.1852 14.784 9.1191 22.015l9.1654-5.2917c3.1308 5.8428 7.7596 11.33 12.824 16.713l9.4948-9.4948c8.5363 8.4676 18.597 14.256 30.156 17.411 10.104 2.1871 20.583 3.8274 34.822 0 11.616-3.1602 21.653-8.9894 30.156-17.411l9.4948 9.4948c5.339-5.2441 9.355-10.895 12.824-16.713l9.1654 5.2917c4.3416-7.0448 6.7835-14.518 9.1191-22.015l6.3892 1.712c-4.4544 16.349-12.66 31.081-25.337 43.886-11.463 11.609-25.914 20.233-43.886 25.337-17.336 4.6376-34.191 4.2542-50.675 0-16.578-5.0587-31.726-12.601-43.886-25.337-11.499-11.208-20.066-25.7-25.337-43.886z"
       fill="#ffff9a"
       id="path4" />
    <path
       d="m55.666 166.41 12.97-3.4753c1.6375 6.0873 3.9516 11.412 6.7204 16.224l14.722-8.4998c4.2421 6.8414 9.4937 13.305 18.4 18.4 7.6893 4.3685 16.034 6.7166 25.135 6.735 10.482 0.0354 18.116-3.016 25.135-6.735 7.5513-4.448 13.8-10.445 18.4-18.4l14.722 8.4998c2.9172-4.8561 5.0397-10.36 6.7204-16.224l12.97 3.4753c-3.8718 14.521-11.221 26.271-20.886 36.176l-9.4948-9.4948c-3.8011 3.7221-8.1103 7.2882-13.594 10.494-12.289 7.159-23.303 8.9114-33.974 9.2094-12.567 0.0189-23.598-3.3881-33.635-9.0125-5.1605-2.8656-9.6688-6.6125-13.932-10.69l-9.4947 9.4948c-9.5848-9.8522-16.993-21.536-20.886-36.176z"
       fill="#fff774"
       id="path6" />
    <path
       d="m63.728 105.17c3.2308-5.3664 6.8968-10.818 12.824-16.713l9.4948 9.4948c4.3083-4.1072 8.804-7.8353 13.776-10.6 9.9729-5.5133 20.904-9.1814 33.781-9.1033 14.426-0.06663 24.423 4.2177 33.806 9.1052 5.0312 3.0596 9.7514 6.4532 13.772 10.598l9.4948-9.4948c4.648 4.5864 8.9427 10.105 12.824 16.713 3.6658 6.2164 6.1791 12.752 8.0618 19.463l-12.97 3.4753-6.7204-16.224-14.722 8.4998c-4.504-7.7089-10.612-13.867-18.4-18.4-7.9683-4.5938-16.378-6.6573-25.135-6.735-8.9453 0.04309-17.329 2.2681-25.135 6.735-7.8665 4.5641-13.924 10.767-18.4 18.4l-14.722-8.4998-6.7204 16.224-12.97-3.4753c2.1725-6.8372 4.3888-13.644 8.0618-19.463"
       fill="#ffab65"
       id="path8" />
    <path
       d="m75.357 111.89c-5.6539 10.069-9.0265 21.122-9.0125 33.635h16.999c0.22339-3.6029-0.01668-6.2268 1.7129-13.011l18.529 4.9647c2.5301-8.0279 6.9292-14.644 14.485-18.877 10.344-5.5354 20.706-5.5714 31.089-1e-5 7.3393 4.9618 12.764 10.938 14.485 18.877l18.529-4.9647c1.1458 4.162 1.6785 8.5107 1.7129 13.011h16.999c-0.0971-11.754-2.89-23.005-9.0125-33.635l-14.722 8.4998c-4.5615-7.8769-10.776-13.92-18.4-18.4-8.9068-5.1883-17.113-6.4744-25.135-6.735-9.5304 0.18048-17.898 2.4446-25.135 6.735-7.9755 4.5785-13.926 10.866-18.4 18.4z"
       fill="#ffd665"
       id="path10" />
    <g
       fill="#d4f4ff"
       id="g18">
      <path
         d="m39.054 170.86 6.3892-1.712c-2.3262-7.9422-2.8637-15.791-3.1103-23.625h10.583c0.03741 7.3405 0.95517 14.302 2.751 20.886l12.969-3.475c-3.4961-12.838-2.5874-24.125 0-34.822l-12.97-3.4753c1.751-6.7655 4.5384-13.223 8.0618-19.463l-9.1654-5.2917c-4.1533 6.7133-6.7567 14.297-9.1191 22.015l-6.3892-1.712c-4.4387 16.872-4.4565 33.764 7e-6 50.675z"
         id="path12" />
      <path
         d="m221.79 169.15c2.1813-7.6848 2.9753-15.6 3.1103-23.625h-10.583c0.1177 8.9528-1.4668 14.629-2.7497 20.886l-12.97-3.4753c2.8943-11.268 3.2147-22.838 0-34.822l12.97-3.4753c-2.0382-7.6164-4.8702-13.852-8.0618-19.463l9.1654-5.2917c3.9232 7.1676 7.2625 14.448 9.1191 22.015l6.3892-1.712c4.4041 16.798 4.4909 33.687 0 50.675z"
         id="path14" />
      <path
         d="m85.057 158.53 18.529-4.9647c-0.72025-2.6946-1.0576-5.3762-1.0593-8.0463h20.505c0.6678-4.4319 2.1456-7.8464 5.2917-9.1654 3.8461-2.1295 7.3004-1.638 10.583 0 3.393 2.124 5.1814 5.1652 5.2917 9.1654h20.505c-0.01 2.6611-0.32884 5.3411-1.0593 8.0463l18.529 4.9647c2.393-8.9314 2.1727-17.582 0-26.022l-18.529 4.9647c-1.7088-7.4967-6.6659-13.739-14.485-18.877-10.36-5.5008-20.722-5.6057-31.089 0-7.6555 4.2722-11.953 10.944-14.485 18.877l-18.529-4.9647c-2.7192 8.9487-1.8091 17.531 0 26.022z"
         id="path16" />
    </g>
    <circle
       cx="133.61"
       cy="145.52"
       r="10.583"
       fill="#fff"
       id="circle20" />
    <g
       fill="#b0d0ff"
       id="g28">
      <path
         d="m42.333 145.52h10.583c0.16431 13.86 3.2975 27.366 10.811 40.349l-9.1654 5.2917c-8.2723-14.378-12.107-29.64-12.229-45.641z"
         id="path22" />
      <path
         d="m214.31 145.52h10.583c0.0754 18.471-5.2576 32.699-12.229 45.641l-9.1654-5.2916c5.8869-11.197 10.86-23.296 10.811-40.349z"
         id="path24" />
      <path
         d="m183.89 145.52h16.999c-2e-3 12.36-3.2732 23.469-9.0125 33.635l-14.722-8.4998c-2.167 3.965-4.9937 7.2371-7.9502 10.373-6.4555 6.3856-13.962 10.706-22.485 13.025-8.8484 2.1651-17.482 2.1781-25.905 0.08-8.9935-2.4291-16.51-6.8715-22.742-13.066-2.8815-3.0133-5.6568-6.2489-7.989-10.411l-14.722 8.4997c-5.4919-9.8925-9.0498-20.811-9.0125-33.635h16.999c0.0085 4.9145 0.68806 9.1402 1.7137 13.011l18.528-4.9645c1.6854 6.0924 4.6047 10.439 8.0923 13.983 3.6363 3.4552 7.9042 6.4094 13.891 8.0004 5.3648 1.4127 10.729 1.4122 16.093-1e-5 6.1515-1.6225 10.312-4.6462 13.937-8.0463 3.9762-4.0077 6.6092-8.6774 8.0463-13.937l18.529 4.9647c1.1504-4.2985 1.7264-8.6352 1.7129-13.011z"
         id="path26" />
    </g>
    <path
       d="m102.53 145.52h20.505c0.18035 4.5019 2.2622 7.2666 5.2917 9.1654 3.6405 1.9872 7.1572 1.7918 10.583-1e-5 3.0471-1.7075 4.9508-4.6158 5.2917-9.1654h20.505c0.3453 11.482-6.3066 21.507-15.544 26.923-9.6252 5.7568-22.19 5.2878-31.114-0.0151-10.324-6.5364-15.25-15.622-15.518-26.908z"
       fill="#fff"
       id="path30" />
  </g>
  <g
     transform="translate(-35.19 -47.096)"
     fill="none"
     opacity=".66392"
     stroke-linejoin="round"
     id="g184">
    <g
       stroke="#000"
       stroke-width="1.0583"
       id="g48">
      <circle
         transform="translate(0 24.532)"
         cx="133.61"
         cy="120.99"
         r="10.583"
         opacity="1"
         id="circle34" />
      <circle
         cx="133.61"
         cy="145.52"
         r="31.089"
         opacity="1"
         id="circle36" />
      <circle
         cx="133.61"
         cy="145.52"
         r="50.271"
         opacity="1"
         id="circle38" />
      <circle
         cx="133.61"
         cy="145.52"
         r="67.27"
         opacity="1"
         id="circle40" />
      <circle
         cx="133.61"
         cy="145.52"
         r="80.698"
         opacity="1"
         id="circle42" />
      <circle
         cx="133.61"
         cy="145.52"
         r="91.281"
         opacity="1"
         id="circle44" />
      <circle
         cx="133.61"
         cy="145.52"
         r="97.896"
         opacity="1"
         id="circle46" />
    </g>
    <g
       stroke="#010009"
       stroke-width=".79375"
       id="g182">
      <path
         transform="translate(0 24.532)"
         d="m144.2 120.99h20.505"
         opacity="1"
         id="path50" />
      <path
         transform="translate(0 24.532)"
         d="m183.89 120.99h16.999"
         opacity="1"
         id="path52" />
      <path
         transform="translate(0 24.532)"
         d="m163.64 112.94 18.529-4.9647"
         opacity="1"
         id="path54" />
      <path
         transform="translate(0 24.532)"
         d="m163.64 129.03 18.529 4.9647"
         opacity="1"
         id="path56" />
      <path
         transform="translate(0 24.532)"
         d="m177.15 146.12 14.722 8.4997"
         opacity="1"
         id="path58" />
      <path
         transform="translate(0 24.532)"
         d="m155.6 142.97 13.564 13.564"
         opacity="1"
         id="path60" />
      <path
         transform="translate(0 24.532)"
         d="m123.03 120.99h-20.505"
         opacity="1"
         id="path62" />
      <path
         transform="translate(0 24.532)"
         d="m83.344 120.99h-16.999"
         opacity="1"
         id="path64" />
      <path
         transform="translate(0 24.532)"
         d="m103.59 129.03-18.529 4.9647"
         opacity="1"
         id="path66" />
      <path
         transform="translate(0 24.532)"
         d="m103.59 112.94-18.529-4.9647"
         opacity="1"
         id="path68" />
      <path
         transform="translate(0 24.532)"
         d="m111.87 142.83-13.797 13.704"
         opacity="1"
         id="path70" />
      <path
         transform="translate(0 24.532)"
         d="m125.57 151.02-4.9647 18.529"
         opacity="1"
         id="path72" />
      <path
         transform="translate(0 24.532)"
         d="m141.66 151.02 4.9647 18.529"
         opacity="1"
         id="path74" />
      <path
         transform="translate(0 24.532)"
         d="m138.91 111.82 10.253-17.758"
         opacity="1"
         id="path76" />
      <path
         transform="translate(0 24.532)"
         d="m128.32 111.82-10.253-17.758"
         opacity="1"
         id="path78" />
      <path
         transform="translate(0 24.532)"
         d="m128.32 130.15-10.253 17.758"
         opacity="1"
         id="path80" />
      <path
         transform="translate(0 24.532)"
         d="m138.91 130.15 10.253 17.758"
         opacity="1"
         id="path82" />
      <path
         transform="translate(0 24.532)"
         d="m155.6 99.005 13.564-13.564"
         opacity="1"
         id="path84" />
      <path
         transform="translate(0 24.532)"
         d="m141.66 90.959 4.9647-18.529"
         opacity="1"
         id="path86" />
      <path
         transform="translate(0 24.532)"
         d="m125.57 90.959-4.9647-18.529"
         opacity="1"
         id="path88" />
      <path
         transform="translate(0 24.532)"
         d="m111.63 99.005-13.564-13.564"
         opacity="1"
         id="path90" />
      <path
         transform="translate(0 24.532)"
         d="m158.75 164.52 8.4997 14.722"
         opacity="1"
         id="path92" />
      <path
         transform="translate(0 24.532)"
         d="m133.61 171.26v16.999"
         opacity="1"
         id="path94" />
      <path
         transform="translate(0 24.532)"
         d="m108.48 164.52-8.4997 14.722"
         opacity="1"
         id="path96" />
      <path
         transform="translate(0 24.532)"
         d="m90.079 146.12-14.722 8.4997"
         opacity="1"
         id="path98" />
      <path
         transform="translate(0 24.532)"
         d="m90.079 95.853-14.722-8.4997"
         opacity="1"
         id="path100" />
      <path
         transform="translate(0 24.532)"
         d="m108.48 77.453-8.4997-14.722"
         opacity="1"
         id="path102" />
      <path
         transform="translate(0 24.532)"
         d="m133.61 70.717v-16.999"
         opacity="1"
         id="path104" />
      <path
         transform="translate(0 24.532)"
         d="m158.75 77.453 8.4997-14.722"
         opacity="1"
         id="path106" />
      <path
         transform="translate(0 24.532)"
         d="m177.15 95.853 14.722-8.4997"
         opacity="1"
         id="path108" />
      <path
         transform="translate(0 24.532)"
         d="m181.18 168.56 9.4948 9.4948"
         opacity="1"
         id="path110" />
      <path
         transform="translate(0 24.532)"
         d="m151.03 185.97 3.4753 12.97"
         opacity="1"
         id="path112" />
      <path
         transform="translate(0 24.532)"
         d="m116.2 185.97-3.4753 12.97"
         opacity="1"
         id="path114" />
      <path
         transform="translate(0 24.532)"
         d="m86.047 168.56-9.4948 9.4948"
         opacity="1"
         id="path116" />
      <path
         transform="translate(0 24.532)"
         d="m68.636 138.4-12.97 3.4753"
         opacity="1"
         id="path118" />
      <path
         transform="translate(0 24.532)"
         d="m68.636 103.58-12.97-3.4753"
         opacity="1"
         id="path120" />
      <path
         transform="translate(0 24.532)"
         d="m86.047 73.421-9.4948-9.4948"
         opacity="1"
         id="path122" />
      <path
         transform="translate(0 24.532)"
         d="m116.2 56.01-3.4753-12.97"
         opacity="1"
         id="path124" />
      <path
         transform="translate(0 24.532)"
         d="m151.03 56.01 3.4753-12.97"
         opacity="1"
         id="path126" />
      <path
         transform="translate(0 24.532)"
         d="m181.18 73.421 9.4948-9.4948"
         opacity="1"
         id="path128" />
      <path
         transform="translate(0 24.532)"
         d="m198.59 103.58 12.97-3.4753"
         opacity="1"
         id="path130" />
      <path
         transform="translate(0 24.532)"
         d="m198.59 138.4 12.97 3.4753"
         opacity="1"
         id="path132" />
      <path
         transform="translate(0 24.532)"
         d="m203.5 161.34 9.1654 5.2917"
         opacity="1"
         id="path134" />
      <path
         transform="translate(0 24.532)"
         d="m173.96 190.87 5.2917 9.1654"
         opacity="1"
         id="path136" />
      <path
         transform="translate(0 24.532)"
         d="m133.61 201.69v10.583"
         opacity="1"
         id="path138" />
      <path
         transform="translate(0 24.532)"
         d="m93.266 190.87-5.2917 9.1654"
         opacity="1"
         id="path140" />
      <path
         transform="translate(0 24.532)"
         d="m63.728 161.34-9.1654 5.2917"
         opacity="1"
         id="path142" />
      <path
         transform="translate(0 24.532)"
         d="m52.917 120.99h-10.583"
         opacity="1"
         id="path144" />
      <path
         transform="translate(0 24.532)"
         d="m63.728 80.639-9.1654-5.2917"
         opacity="1"
         id="path146" />
      <path
         transform="translate(0 24.532)"
         d="m93.266 51.102-5.2917-9.1654"
         opacity="1"
         id="path148" />
      <path
         transform="translate(0 24.532)"
         d="m133.61 40.29v-10.583"
         opacity="1"
         id="path150" />
      <path
         transform="translate(0 24.532)"
         d="m173.96 51.102 5.2917-9.1654"
         opacity="1"
         id="path152" />
      <path
         transform="translate(0 24.532)"
         d="m203.5 80.639 9.1654-5.2917"
         opacity="1"
         id="path154" />
      <path
         transform="translate(0 24.532)"
         d="m214.31 120.99h10.583"
         opacity="1"
         id="path156" />
      <path
         transform="translate(0 24.532)"
         d="m198.16 56.443 4.6772-4.6772"
         opacity="1"
         id="path158" />
      <path
         transform="translate(0 24.532)"
         d="m157.24 32.817 1.712-6.3892"
         opacity="1"
         id="path160" />
      <path
         transform="translate(0 24.532)"
         d="m109.99 32.817-1.712-6.3892"
         opacity="1"
         id="path162" />
      <path
         transform="translate(0 24.532)"
         d="m69.069 56.443-4.6772-4.6772"
         opacity="1"
         id="path164" />
      <path
         transform="translate(0 24.532)"
         d="m45.444 97.363-6.3892-1.712"
         opacity="1"
         id="path166" />
      <path
         transform="translate(0 24.532)"
         d="m45.444 144.61-6.3892 1.712"
         opacity="1"
         id="path168" />
      <path
         transform="translate(0 24.532)"
         d="m69.069 185.53-4.6772 4.6772"
         opacity="1"
         id="path170" />
      <path
         transform="translate(0 24.532)"
         d="m109.99 209.16-1.712 6.3892"
         opacity="1"
         id="path172" />
      <path
         transform="translate(0 24.532)"
         d="m157.24 209.16 1.712 6.3892"
         opacity="1"
         id="path174" />
      <path
         transform="translate(0 24.532)"
         d="m198.16 185.53 4.6772 4.6772"
         opacity="1"
         id="path176" />
      <path
         transform="translate(0 24.532)"
         d="m221.79 144.61 6.3892 1.712"
         opacity="1"
         id="path178" />
      <path
         transform="translate(0 24.532)"
         d="m221.79 97.363 6.3892-1.712"
         opacity="1"
         id="path180" />
    </g>
  </g>
  <metadata
     id="metadata186">
    <rdf:RDF>
      <cc:Work
         rdf:about="">
        <dc:title>Logo</dc:title>
        <dc:format>image/svg+xml</dc:format>
        <dc:type
           rdf:resource="http://purl.org/dc/dcmitype/StillImage" />
        <dc:creator>
          <cc:Agent>
            <dc:title>PhoneDroid</dc:title>
          </cc:Agent>
        </dc:creator>
        <cc:license
           rdf:resource="http://creativecommons.org/licenses/by-sa/4.0/" />
      </cc:Work>
      <cc:License
         rdf:about="http://creativecommons.org/licenses/by-sa/4.0/">
        <cc:permits
           rdf:resource="http://creativecommons.org/ns#Reproduction" />
        <cc:permits
           rdf:resource="http://creativecommons.org/ns#Distribution" />
        <cc:requires
           rdf:resource="http://creativecommons.org/ns#Notice" />
        <cc:requires
           rdf:resource="http://creativecommons.org/ns#Attribution" />
        <cc:permits
           rdf:resource="http://creativecommons.org/ns#DerivativeWorks" />
        <cc:requires
           rdf:resource="http://creativecommons.org/ns#ShareAlike" />
      </cc:License>
    </rdf:RDF>
  </metadata>
</svg>
